<svg class="homepage_features_icons__item_svg" width="50" height="50" viewBox="0 0 75 60" version="1.1" xmlns="http://www.w3.org/2000/svg" xmlns:xlink="http://www.w3.org/1999/xlink" xml:space="preserve">
  <path d="M29.9,20.8c0.5-0.1,1,0.3,1.1,0.8c0.1,0.8-0.1,1.5-0.4,2.1c-1,2.2-1.6,4.3-1.9,6.6c0,0,0,0,0,0 c-0.2,1.2-0.2,2.5,0.1,3.7c0.6,2.8,1.9,4.9,4.5,6.2c2.1,1,4.3,1.1,6.6,0.6l0,0c1.9-0.4,3.4-1.4,4.7-3c1.8-2.6,2.1-5.3,1.6-8.3 c-0.5-2.2-1.2-4.3-2.1-6.3c-0.3-0.4-0.4-1.1-0.1-1.8c0.2-0.5,0.8-0.7,1.3-0.4c0.5,0.2,0.7,0.8,0.5,1.2c0,0,0,0.1,0.1,0.1 c1,2.2,1.8,4.5,2.3,6.8c0,0,0,0,0,0c0.6,3.4,0.3,6.7-1.9,9.8c0,0,0,0,0,0c-1.5,1.9-3.4,3.2-5.8,3.7c-2.6,0.5-5.3,0.5-7.8-0.7l0,0 c-3.3-1.6-4.9-4.3-5.6-7.5c0,0,0,0,0,0c-0.3-1.4-0.4-2.9-0.1-4.4c0.3-2.5,1-4.8,2.1-7.2c0,0,0,0,0,0c0.2-0.5,0.3-0.7,0.2-0.9 C29,21.4,29.4,20.9,29.9,20.8z"></path>
  <path d="M43.2,21.6c0-0.5,0.4-1,1-1h28.4c0.2,0,0.4,0,0.5,0c0,0,0,0,0,0c0.2,0,0.3,0,0.4,0c0.5,0,1,0.4,1,1 c0,0.5-0.4,1-1,1c-0.2,0-0.5,0-0.6-0.1c-0.2,0-0.3,0-0.3,0H44.2C43.7,22.5,43.2,22.1,43.2,21.6z"></path>
  <path d="M0.6,21.6c0-0.5,0.4-1,1-1h0.3c9.4,0,18.8,0.1,28.1,0.3c0.5,0,1,0.5,1,1c0,0.5-0.5,1-1,1 c-9.3-0.2-18.6-0.3-28.1-0.3H1.6C1,22.5,0.6,22.1,0.6,21.6z"></path>
  <path d="M4.7,26c0.9-0.3,1.9-0.7,3-0.6c1,0.1,2,0.4,3,0.7l0,0c1.4,0.5,2.5,0.9,3.6,0.6c0,0,0,0,0,0 c0.7-0.2,1.2-0.3,1.7-0.5c0,0,0,0,0.1,0c0.1,0,0.2-0.1,0.3-0.1c0.9-0.3,2.1-0.7,3.3-0.6l0,0c1.1,0.1,2.2,0.5,3.1,0.8l0,0 c1,0.4,2,0.6,2.9,0.6c0.5,0,1,0.4,1,1c0,0.5-0.4,1-1,1c-1.2,0-2.4-0.3-3.6-0.7c-0.9-0.3-1.8-0.6-2.6-0.7c-0.8-0.1-1.6,0.2-2.6,0.5 c-0.1,0-0.2,0.1-0.2,0.1c-0.6,0.3-1.3,0.4-1.9,0.6C13,29.1,11.3,28.5,10,28c-0.9-0.3-1.7-0.5-2.5-0.6c-0.7-0.1-1.3,0.1-2.1,0.4 c0,0,0,0,0,0l0,0c-0.9,0.3-1.9,0.7-2.9,0.9l0,0c-0.4,0.1-0.7,0-0.9,0c0,0,0,0,0,0c-0.2,0-0.3,0-0.4,0c-0.5,0.1-1-0.2-1.1-0.8 c-0.1-0.5,0.2-1,0.8-1.1c0.3-0.1,0.7,0,0.9,0c0,0,0,0,0,0c0.2,0,0.3,0,0.4,0C3,26.6,3.8,26.3,4.7,26z"></path>
  <path d="M52.8,26c0.9-0.4,2-0.7,3.1-0.6c0,0,0,0,0.1,0c1.2,0.2,2.3,0.5,3.4,1c1,0.3,1.8,0.6,2.6,0.5 c0.9-0.2,1.8-0.4,2.6-0.8c0.9-0.5,2.1-0.8,3.2-0.7c1.1,0,2.1,0.4,3,0.7c0,0,0,0,0.1,0c1.2,0.4,2.1,0.8,3.2,0.6 c0.5-0.1,1,0.3,1.1,0.8c0.1,0.5-0.3,1-0.8,1.1c-1.6,0.2-2.9-0.3-4-0.7c0,0,0,0-0.1,0l0,0c-1-0.3-1.7-0.6-2.4-0.6c0,0-0.1,0-0.1,0 c-0.7-0.1-1.5,0.1-2.2,0.5c0,0,0,0,0,0c-1,0.5-2.1,0.7-3.1,0.9c0,0,0,0,0,0c-1.3,0.2-2.5-0.2-3.5-0.5c0,0,0,0-0.1,0c0,0,0,0-0.1,0 c-0.9-0.4-1.9-0.7-2.9-0.8c-0.7-0.1-1.4,0.1-2.2,0.4c0,0,0,0-0.1,0c-0.2,0.1-0.4,0.1-0.6,0.2c-0.8,0.3-1.6,0.6-2.6,0.7 c-0.3,0.1-0.5,0.1-0.6,0.1c0,0,0,0,0,0c-0.2,0-0.2,0-0.3,0c-0.5,0.1-1-0.2-1.2-0.7c-0.1-0.5,0.2-1,0.7-1.2c0.3-0.1,0.6-0.1,0.7-0.1 c0,0,0,0,0,0c0.2,0,0.2,0,0.3,0c0.1,0,0.1,0,0.2,0c0.7-0.1,1.3-0.3,2-0.5C52.3,26.2,52.5,26.1,52.8,26z"></path>
  <path d="M50.1,31.8c-0.4-0.2-1-0.1-1.2,0.3c-0.3,0.4-0.2,1,0.3,1.3c0.3,0.2,0.7,0.3,0.9,0.3c0.1,0,0.2,0,0.3,0 c0,0,0,0,0,0c0.1,0,0.1,0,0.1,0h23.1c0.5,0,1-0.4,1-1c0-0.5-0.4-1-1-1H50.5C50.4,31.8,50.3,31.8,50.1,31.8 C50.2,31.8,50.2,31.8,50.1,31.8C50.2,31.8,50.1,31.8,50.1,31.8z"></path>
  <path d="M26.1,32.1c0.3,0.4,0.2,1-0.3,1.3c-0.3,0.2-0.7,0.3-0.9,0.3c-0.1,0-0.2,0-0.3,0l0,0c-0.1,0-0.1,0-0.1,0H1.5 c-0.5,0-1-0.4-1-1c0-0.5,0.4-1,1-1h23.1c0.1,0,0.2,0,0.3,0l0,0c0,0,0,0,0.1,0C25.3,31.6,25.8,31.7,26.1,32.1z"></path>
  <path d="M46.4,47.3c-0.2-1.9,1.5-3.3,3.1-3.3c1.8,0,3.2,1.4,3.3,3.1c0.1,1-0.4,1.8-1,2.3c-0.6,0.5-1.4,1-2.2,1 c0,0,0,0-0.1,0c-0.8-0.1-1.6-0.3-2.2-0.9C46.8,49,46.4,48.2,46.4,47.3z M49.5,46c-0.8,0-1.3,0.6-1.2,1.2c0,0,0,0.1,0,0.1 c0,0.4,0.1,0.7,0.3,0.8c0.2,0.2,0.5,0.3,1,0.4c0.2,0,0.6-0.1,0.9-0.4c0.3-0.3,0.4-0.6,0.4-0.8C50.9,46.6,50.3,46,49.5,46z"></path>
  <path d="M22.2,47.1c0.1-1.7,1.4-3.2,3.2-3.2c1.7,0,3.2,1.3,3.2,3.1c0.1,1-0.4,1.9-1,2.4c-0.6,0.6-1.4,0.9-2.1,0.9 c0,0,0,0-0.1,0c-0.9,0-1.7-0.4-2.3-1C22.5,48.8,22.1,48,22.2,47.1z M25.4,45.9c-0.7,0-1.2,0.5-1.3,1.3l0,0c0,0.2,0.1,0.5,0.4,0.8 c0.3,0.3,0.6,0.4,0.9,0.4c0.3,0,0.7-0.2,0.9-0.4c0.2-0.2,0.4-0.5,0.4-0.9c0,0,0,0,0-0.1C26.7,46.4,26.1,45.9,25.4,45.9z"></path>
  <path d="M39.6,54.4c0.7,0.6,1,1.4,1.1,2.3c0,0.1,0,0.1,0,0.2c-0.1,1-0.4,1.8-1.1,2.4C39,59.8,38.1,60,37.2,60 c0,0,0,0,0,0c-0.7-0.1-1.4-0.4-2-1c-0.5-0.5-1-1.4-0.9-2.3c0.1-1.8,1.4-2.9,2.9-3c0,0,0,0,0,0C38.1,53.7,38.9,53.9,39.6,54.4z M37.3,55.7c-0.6,0.1-1.1,0.5-1.1,1.2c0,0.3,0.1,0.6,0.3,0.8c0.3,0.3,0.6,0.4,0.8,0.4c0.6,0,0.9-0.1,1.1-0.3 c0.2-0.1,0.4-0.4,0.4-0.9c-0.1-0.5-0.3-0.8-0.5-1C38.2,55.8,37.8,55.6,37.3,55.7z"></path>
  <path d="M41.3,29.7c0.5,0,1,0.4,1,1c0,1.2-0.1,2.7-1.1,4c0,0,0,0,0,0c-0.5,0.6-1,1-1.6,1.3c-0.3,0.1-0.5,0.2-0.7,0.2 c-0.1,0-0.2,0-0.2,0c-0.1,0-0.1,0-0.1,0c-0.5,0.2-1.1-0.1-1.2-0.6c-0.2-0.5,0.1-1.1,0.6-1.2c0.1,0,0.2-0.1,0.3-0.1c0,0,0.1,0,0.1,0 l0,0c0,0,0.1,0,0.1,0c0.1,0,0.2,0,0.2-0.1c0.4-0.2,0.7-0.4,1-0.8c0.6-0.8,0.7-1.7,0.7-2.8C40.3,30.1,40.8,29.7,41.3,29.7z"></path>
  <path d="M12.5,35.4c0.1,0,0.2-0.1,0.3-0.1c0.9,0,1.8,0.2,2.5,0.7c0.7,0.5,1.1,1.3,1.2,2.2c0,0,0,0,0,0 c0.1,1.7-1.1,3.3-3.2,3.4c-1.8,0.1-3.3-1.3-3.4-3.1c0-0.7,0.1-1.4,0.6-2C11.1,36.1,11.8,35.7,12.5,35.4z M13.1,37.3 c-0.5,0.2-0.7,0.4-0.9,0.6C12.1,38,12,38.2,12,38.5c0,0,0,0,0,0.1c0,0.7,0.6,1.2,1.3,1.2l0,0c1-0.1,1.4-0.7,1.3-1.3 c-0.1-0.5-0.2-0.7-0.5-0.9C14,37.5,13.6,37.3,13.1,37.3z"></path>
  <path d="M61.7,35.4c0.1,0,0.2-0.1,0.3-0.1c0.9,0,1.8,0.2,2.5,0.7c0.7,0.5,1.1,1.3,1.2,2.2c0,0,0,0,0,0 c0.1,1.7-1.1,3.3-3.2,3.4c-1.8,0.1-3.3-1.3-3.4-3.1c0-0.7,0.1-1.4,0.6-2C60.3,36.1,61,35.7,61.7,35.4z M62.2,37.3 c-0.5,0.2-0.7,0.4-0.9,0.6c-0.1,0.1-0.2,0.3-0.2,0.7c0,0,0,0,0,0.1c0,0.7,0.6,1.2,1.3,1.2l0,0c1-0.1,1.4-0.7,1.3-1.3 c-0.1-0.5-0.2-0.7-0.5-0.9C63.2,37.5,62.8,37.3,62.2,37.3z"></path>
  <path d="M37.1,18.8c0.1,0,0.2,0,0.3,0c1.2,0.1,2.1,0.5,2.9,1.1c0,0,0,0,0.1,0.1c2,1.8,3.1,4.2,3.9,6.5l0,0 c0.7,2.1,1.5,4.4,1,6.9c-0.5,2.1-1.5,3.9-3.4,5.1c0,0,0,0,0,0c-1.6,1-3.4,1.1-5,1.1c-2.3-0.1-4.1-1-5.5-2.8l0,0 c-1.6-2.3-1.8-4.8-1.3-7.3l0,0c0.4-2.3,1.2-4.4,2.4-6.4C33.2,21.2,34.5,19.3,37.1,18.8z M37.3,20.7c-1.6,0.4-2.5,1.6-3.4,3.2l0,0 c-1,1.8-1.7,3.7-2.1,5.8c-0.4,2.2-0.2,4.1,1,5.8c1,1.3,2.3,1.9,4,2l0,0c1.5,0.1,2.8-0.1,3.9-0.8c1.4-0.9,2.2-2.2,2.6-3.9l0,0 c0.4-1.9-0.1-3.7-0.9-5.8c-0.8-2.2-1.7-4.2-3.4-5.7C38.6,21,38.1,20.8,37.3,20.7z"></path>
  <path d="M37.5,1.6c0.6,0,1,0.5,1,1v9.6c0,0.6-0.5,1-1,1s-1-0.5-1-1V2.6C36.4,2.1,36.9,1.6,37.5,1.6z"></path>
  <path d="M28,0c0.6,0,1,0.5,1,1c0,0.1,0,0.2,0,0.3c0,0.1-0.1,0.2-0.1,0.3c0,0,0,0,0,0.1c0,0,0,0.1-0.1,0.1 c-1.6,2.4-3.1,4.9-4.5,7.6c-0.3,0.5-0.9,0.7-1.4,0.4c-0.5-0.3-0.7-0.9-0.4-1.4c1.4-2.6,2.9-5.2,4.6-7.7c0,0,0-0.1,0.1-0.1 c0,0,0,0,0-0.1C27.2,0.2,27.6,0,28,0z M27.2,0.4C27.2,0.4,27.2,0.4,27.2,0.4L27.2,0.4z M28.7,1.9C28.6,1.9,28.7,1.9,28.7,1.9 L28.7,1.9z"></path>
  <path d="M46.7,0.7c0.5-0.3,1.1-0.2,1.4,0.3c0.8,1.1,1.5,2.4,2.3,3.6l0,0c0.7,1.1,1.3,2.3,2,3.4 c0.2,0.2,0.4,0.5,0.4,0.8c0,0.6-0.5,1-1,1h-0.1c-0.4,0-0.7-0.2-0.9-0.6c-0.7-1.3-1.3-2.5-2-3.6c0,0,0,0,0,0 c-0.8-1.3-1.5-2.5-2.2-3.5C46.1,1.7,46.2,1,46.7,0.7z"></path>
  <path d="M21.5,4.9c0.6-0.1,1.1,0.3,1.2,0.8l0.6,3.6l3.5-1.4c0.5-0.2,1.1,0.1,1.3,0.6C28.3,9,28,9.6,27.5,9.8 l-4.7,1.8c-0.3,0.1-0.6,0.1-0.9-0.1c-0.3-0.2-0.5-0.4-0.5-0.7l-0.8-4.8C20.5,5.5,20.9,5,21.5,4.9z"></path>
  <path d="M33.7,9.5c0.5-0.4,1.1-0.3,1.5,0.2l2.3,2.9l2.3-2.7c0.4-0.4,1-0.5,1.5-0.1c0.4,0.4,0.5,1,0.1,1.5l-3.2,3.7 c-0.2,0.2-0.5,0.4-0.8,0.4c-0.3,0-0.6-0.2-0.8-0.4l-3.1-3.9C33.1,10.5,33.2,9.8,33.7,9.5z"></path>
  <path d="M53.6,4.9c0.6,0.1,1,0.6,0.9,1.1l-0.5,4.8c0,0.3-0.2,0.6-0.5,0.8c-0.3,0.2-0.6,0.2-0.9,0.1l-4.8-1.6 c-0.5-0.2-0.8-0.8-0.7-1.3C47.4,8.3,48,8,48.5,8.1l3.6,1.2l0.4-3.5C52.6,5.3,53.1,4.9,53.6,4.9z"></path>
</svg>